solid rectangle
facet normal 0.0 0.0 -1.0
outer loop
vertex 2042.67904764735 2486.43849024995 3.60955709766131e-13
vertex 1449.97904764735 1164.23849024995 3.60955709766131e-13
vertex 1449.97904764735 2486.43849024995 3.60955709766131e-13
endloop
endfacet
facet normal 0.0 0.0 -1.0
outer loop
vertex 1449.97904764735 1164.23849024995 3.60955709766131e-13
vertex 2042.67904764735 2486.43849024995 3.60955709766131e-13
vertex 2042.67904764735 1164.23849024995 3.60955709766131e-13
endloop
endfacet
facet normal 0.0 0.0 1.0
outer loop
vertex 2042.67904764735 1164.23849024995 449.3
vertex 1449.97904764735 2486.43849024995 449.3
vertex 1449.97904764735 1164.23849024995 449.3
endloop
endfacet
facet normal 0.0 0.0 1.0
outer loop
vertex 1449.97904764735 2486.43849024995 449.3
vertex 2042.67904764735 1164.23849024995 449.3
vertex 2042.67904764735 2486.43849024995 449.3
endloop
endfacet
facet normal -0.0 -1.0 -0.0
outer loop
vertex 2042.67904764735 1164.23849024995 449.3
vertex 1449.97904764735 1164.23849024995 3.60955709766131e-13
vertex 2042.67904764735 1164.23849024995 3.60955709766131e-13
endloop
endfacet
facet normal -0.0 -1.0 -0.0
outer loop
vertex 1449.97904764735 1164.23849024995 3.60955709766131e-13
vertex 2042.67904764735 1164.23849024995 449.3
vertex 1449.97904764735 1164.23849024995 449.3
endloop
endfacet
facet normal -1.0 0.0 0.0
outer loop
vertex 1449.97904764735 2486.43849024995 449.3
vertex 1449.97904764735 1164.23849024995 3.60955709766131e-13
vertex 1449.97904764735 1164.23849024995 449.3
endloop
endfacet
facet normal -1.0 0.0 0.0
outer loop
vertex 1449.97904764735 1164.23849024995 3.60955709766131e-13
vertex 1449.97904764735 2486.43849024995 449.3
vertex 1449.97904764735 2486.43849024995 3.60955709766131e-13
endloop
endfacet
facet normal -0.0 1.0 0.0
outer loop
vertex 1449.97904764735 2486.43849024995 449.3
vertex 2042.67904764735 2486.43849024995 3.60955709766131e-13
vertex 1449.97904764735 2486.43849024995 3.60955709766131e-13
endloop
endfacet
facet normal -0.0 1.0 0.0
outer loop
vertex 2042.67904764735 2486.43849024995 3.60955709766131e-13
vertex 1449.97904764735 2486.43849024995 449.3
vertex 2042.67904764735 2486.43849024995 449.3
endloop
endfacet
facet normal 1.0 0.0 0.0
outer loop
vertex 2042.67904764735 2486.43849024995 3.60955709766131e-13
vertex 2042.67904764735 1164.23849024995 449.3
vertex 2042.67904764735 1164.23849024995 3.60955709766131e-13
endloop
endfacet
facet normal 1.0 0.0 0.0
outer loop
vertex 2042.67904764735 1164.23849024995 449.3
vertex 2042.67904764735 2486.43849024995 3.60955709766131e-13
vertex 2042.67904764735 2486.43849024995 449.3
endloop
endfacet
endsolid rectangle
